<svg width="285" height="284" viewBox="0 0 285 284" fill="none" xmlns="http://www.w3.org/2000/svg">
<g opacity="0.2" clip-path="url(#clip0_2574_2370)">
<path d="M142.292 0C63.7391 0 0.194824 63.5443 0.194824 142.097C0.194824 220.456 63.7391 284.195 142.292 284.195C220.651 284.195 284.39 220.651 284.39 142.097C284.195 63.5443 220.651 0 142.292 0ZM142.292 275.034C68.807 275.034 9.35611 215.583 9.35611 142.097C9.35611 68.6122 68.807 9.16129 142.292 9.16129C215.778 9.16129 275.228 68.6122 275.228 142.097C275.228 215.388 215.583 275.034 142.292 275.034Z" fill="white"/>
<path d="M142.293 30.6025C80.8932 30.6025 30.9934 80.5023 30.9934 141.902C30.9934 203.303 80.8932 253.202 142.293 253.202C203.693 253.202 253.593 203.498 253.593 142.097C253.593 80.5023 203.693 30.6025 142.293 30.6025ZM142.293 236.244C90.2494 236.244 47.9515 193.946 47.9515 141.902C47.9515 89.8585 90.2494 47.5607 142.293 47.5607C194.337 47.5607 236.635 89.8585 236.635 141.902C236.635 193.946 194.337 236.244 142.293 236.244Z" fill="white"/>
<path d="M142.293 79.5273C107.792 79.5273 79.7231 107.596 79.7231 142.097C79.7231 176.598 107.597 204.667 142.293 204.667C176.794 204.667 204.862 176.598 204.862 142.097C204.668 107.596 176.794 79.5273 142.293 79.5273ZM142.293 175.623C123.775 175.623 108.766 160.614 108.766 142.097C108.766 123.579 123.775 108.571 142.293 108.571C160.81 108.571 175.819 123.579 175.819 142.097C175.819 160.614 160.81 175.623 142.293 175.623Z" fill="white"/>
</g>
<defs>
<clipPath id="clip0_2574_2370">
<rect width="284" height="284" fill="white" transform="translate(0.194824)"/>
</clipPath>
</defs>
</svg>
