<svg width="134" height="182" viewBox="0 0 134 182" fill="none" xmlns="http://www.w3.org/2000/svg">
<g opacity="0.8" clip-path="url(#clip0_2693_2358)">
<path d="M39.4688 176.695C40.941 176.695 42.0451 177.802 42.0451 179.279C42.0451 180.756 40.941 181.864 39.4688 181.864C37.9967 181.864 36.8926 180.756 36.8926 179.279C36.8926 177.802 38.1194 176.695 39.4688 176.695Z" fill="#FFCF2D"/>
<path d="M39.4688 154.662C40.941 154.662 42.0451 155.77 42.0451 157.247C42.0451 158.724 40.941 159.832 39.4688 159.832C37.9967 159.832 36.8926 158.724 36.8926 157.247C36.8926 155.893 38.1194 154.662 39.4688 154.662Z" fill="#FFCF2D"/>
<path d="M39.4688 132.753C40.941 132.753 42.0451 133.861 42.0451 135.338C42.0451 136.815 40.941 137.923 39.4688 137.923C37.9967 137.923 36.8926 136.815 36.8926 135.338C36.8926 133.861 38.1194 132.753 39.4688 132.753Z" fill="#FFCF2D"/>
<path d="M39.4688 110.72C40.941 110.72 42.0451 111.828 42.0451 113.305C42.0451 114.782 40.941 115.89 39.4688 115.89C37.9967 115.89 36.8926 114.782 36.8926 113.305C36.8926 111.828 38.1194 110.72 39.4688 110.72Z" fill="#FFCF2D"/>
<path d="M39.4688 88.6878C40.941 88.6878 42.0451 89.7956 42.0451 91.2726C42.0451 92.7496 40.941 93.8574 39.4688 93.8574C37.9967 93.8574 36.8926 92.7496 36.8926 91.2726C36.8926 89.9186 38.1194 88.6878 39.4688 88.6878Z" fill="#FFCF2D"/>
<path d="M39.4688 66.6546C40.941 66.6546 42.0451 67.7624 42.0451 69.2394C42.0451 70.7164 40.941 71.8242 39.4688 71.8242C37.9967 71.8242 36.8926 70.7164 36.8926 69.2394C36.8926 67.7624 38.1194 66.6546 39.4688 66.6546Z" fill="#FFCF2D"/>
<path d="M39.4688 44.7464C40.941 44.7464 42.0451 45.8541 42.0451 47.3312C42.0451 48.8082 40.941 49.916 39.4688 49.916C37.9967 49.916 36.8926 48.8082 36.8926 47.3312C36.8926 45.8541 38.1194 44.7464 39.4688 44.7464Z" fill="#FFCF2D"/>
<path d="M39.4688 22.7132C40.941 22.7132 42.0451 23.821 42.0451 25.298C42.0451 26.775 40.941 27.8828 39.4688 27.8828C37.9967 27.8828 36.8926 26.775 36.8926 25.298C36.8926 23.821 38.1194 22.7132 39.4688 22.7132Z" fill="#FFCF2D"/>
<path d="M39.4688 0.680969C40.941 0.680969 42.0451 1.78873 42.0451 3.26577C42.0451 4.7428 40.941 5.85059 39.4688 5.85059C37.9967 5.85059 36.8926 4.7428 36.8926 3.26577C36.8926 1.91182 38.1194 0.680969 39.4688 0.680969Z" fill="#FFCF2D"/>
<path d="M57.7481 176.695C59.2203 176.695 60.3244 177.802 60.3244 179.279C60.3244 180.756 59.2203 181.864 57.7481 181.864C56.276 181.864 55.1719 180.756 55.1719 179.279C55.1719 177.802 56.276 176.695 57.7481 176.695Z" fill="#FFCF2D"/>
<path d="M57.7481 154.662C59.2203 154.662 60.3244 155.77 60.3244 157.247C60.3244 158.724 59.2203 159.832 57.7481 159.832C56.276 159.832 55.1719 158.724 55.1719 157.247C55.1719 155.893 56.276 154.662 57.7481 154.662Z" fill="#FFCF2D"/>
<path d="M57.7481 132.753C59.2203 132.753 60.3244 133.861 60.3244 135.338C60.3244 136.815 59.2203 137.923 57.7481 137.923C56.276 137.923 55.1719 136.815 55.1719 135.338C55.1719 133.861 56.276 132.753 57.7481 132.753Z" fill="#FFCF2D"/>
<path d="M57.7481 110.72C59.2203 110.72 60.3244 111.828 60.3244 113.305C60.3244 114.782 59.2203 115.89 57.7481 115.89C56.276 115.89 55.1719 114.782 55.1719 113.305C55.1719 111.828 56.276 110.72 57.7481 110.72Z" fill="#FFCF2D"/>
<path d="M57.7481 88.6878C59.2203 88.6878 60.3244 89.7956 60.3244 91.2726C60.3244 92.7496 59.2203 93.8574 57.7481 93.8574C56.276 93.8574 55.1719 92.7496 55.1719 91.2726C55.1719 89.9186 56.276 88.6878 57.7481 88.6878Z" fill="#FFCF2D"/>
<path d="M57.7481 66.6546C59.2203 66.6546 60.3244 67.7624 60.3244 69.2394C60.3244 70.7164 59.2203 71.8242 57.7481 71.8242C56.276 71.8242 55.1719 70.7164 55.1719 69.2394C55.1719 67.7624 56.276 66.6546 57.7481 66.6546Z" fill="#FFCF2D"/>
<path d="M57.7481 44.7464C59.2203 44.7464 60.3244 45.8542 60.3244 47.3312C60.3244 48.8082 59.2203 49.916 57.7481 49.916C56.276 49.916 55.1719 48.8082 55.1719 47.3312C55.1719 45.8542 56.276 44.7464 57.7481 44.7464Z" fill="#FFCF2D"/>
<path d="M57.7481 22.7132C59.2203 22.7132 60.3244 23.821 60.3244 25.298C60.3244 26.775 59.2203 27.8828 57.7481 27.8828C56.276 27.8828 55.1719 26.775 55.1719 25.298C55.1719 23.821 56.276 22.7132 57.7481 22.7132Z" fill="#FFCF2D"/>
<path d="M57.7481 0.680954C59.2203 0.680954 60.3244 1.78872 60.3244 3.26576C60.3244 4.7428 59.2203 5.85059 57.7481 5.85059C56.276 5.85059 55.1719 4.7428 55.1719 3.26576C55.1719 1.91181 56.276 0.680954 57.7481 0.680954Z" fill="#FFCF2D"/>
<path d="M3.03329 176.695C4.50544 176.695 5.60955 177.802 5.60955 179.279C5.60955 180.756 4.50544 181.864 3.03329 181.864C1.56114 181.864 0.457031 180.756 0.457031 179.279C0.457031 177.802 1.56114 176.695 3.03329 176.695Z" fill="#FFCF2D"/>
<path d="M3.03329 154.662C4.50544 154.662 5.60955 155.77 5.60955 157.247C5.60955 158.724 4.50544 159.832 3.03329 159.832C1.56114 159.832 0.457031 158.724 0.457031 157.247C0.457031 155.893 1.56114 154.662 3.03329 154.662Z" fill="#FFCF2D"/>
<path d="M3.03329 132.753C4.50544 132.753 5.60955 133.861 5.60955 135.338C5.60955 136.815 4.50544 137.923 3.03329 137.923C1.56114 137.923 0.457031 136.692 0.457031 135.338C0.457031 133.861 1.56114 132.753 3.03329 132.753Z" fill="#FFCF2D"/>
<path d="M3.03329 110.72C4.50544 110.72 5.60955 111.828 5.60955 113.305C5.60955 114.782 4.50544 115.89 3.03329 115.89C1.56114 115.89 0.457031 114.659 0.457031 113.305C0.457031 111.951 1.56114 110.72 3.03329 110.72Z" fill="#FFCF2D"/>
<path d="M3.03329 88.6878C4.50544 88.6878 5.60955 89.7956 5.60955 91.2726C5.60955 92.7496 4.50544 93.8574 3.03329 93.8574C1.56114 93.8574 0.457031 92.7496 0.457031 91.2726C0.457031 89.9186 1.56114 88.6878 3.03329 88.6878Z" fill="#FFCF2D"/>
<path d="M3.03329 66.6546C4.50544 66.6546 5.60955 67.7624 5.60955 69.2394C5.60955 70.7164 4.50544 71.8242 3.03329 71.8242C1.56114 71.8242 0.457031 70.7164 0.457031 69.2394C0.457031 67.7624 1.56114 66.6546 3.03329 66.6546Z" fill="#FFCF2D"/>
<path d="M3.03329 44.7464C4.50544 44.7464 5.60955 45.8542 5.60955 47.3312C5.60955 48.8082 4.50544 49.916 3.03329 49.916C1.56114 49.916 0.457031 48.8082 0.457031 47.3312C0.457031 45.8542 1.56114 44.7464 3.03329 44.7464Z" fill="#FFCF2D"/>
<path d="M3.03329 22.7132C4.50544 22.7132 5.60955 23.821 5.60955 25.298C5.60955 26.775 4.50544 27.8828 3.03329 27.8828C1.56114 27.8828 0.457031 26.775 0.457031 25.298C0.457031 23.821 1.56114 22.7132 3.03329 22.7132Z" fill="#FFCF2D"/>
<path d="M3.03329 0.680969C4.50544 0.680969 5.60955 1.78873 5.60955 3.26577C5.60955 4.7428 4.50544 5.85059 3.03329 5.85059C1.56114 5.85059 0.457031 4.7428 0.457031 3.26577C0.457031 1.91182 1.56114 0.680969 3.03329 0.680969Z" fill="#FFCF2D"/>
<path d="M21.3126 176.695C22.7847 176.695 23.8889 177.802 23.8889 179.279C23.8889 180.756 22.6621 181.864 21.3126 181.864C19.8404 181.864 18.7363 180.756 18.7363 179.279C18.7363 177.802 19.8404 176.695 21.3126 176.695Z" fill="#FFCF2D"/>
<path d="M21.3126 154.662C22.7847 154.662 23.8888 155.77 23.8888 157.247C23.8888 158.724 22.7847 159.832 21.3126 159.832C19.8404 159.832 18.7363 158.724 18.7363 157.247C18.7363 155.893 19.8404 154.662 21.3126 154.662Z" fill="#FFCF2D"/>
<path d="M21.3126 132.753C22.7847 132.753 23.8888 133.861 23.8888 135.338C23.8888 136.815 22.7847 137.923 21.3126 137.923C19.8404 137.923 18.7363 136.815 18.7363 135.338C18.7363 133.861 19.8404 132.753 21.3126 132.753Z" fill="#FFCF2D"/>
<path d="M21.3126 110.72C22.7847 110.72 23.8888 111.828 23.8888 113.305C23.8888 114.782 22.7847 115.89 21.3126 115.89C19.8404 115.89 18.7363 114.782 18.7363 113.305C18.7363 111.828 19.8404 110.72 21.3126 110.72Z" fill="#FFCF2D"/>
<path d="M21.3126 88.6878C22.7847 88.6878 23.8889 89.7956 23.8889 91.2726C23.8889 92.7496 22.7847 93.8574 21.3126 93.8574C19.8404 93.8574 18.7363 92.7496 18.7363 91.2726C18.7363 89.9186 19.8404 88.6878 21.3126 88.6878Z" fill="#FFCF2D"/>
<path d="M21.3126 66.6546C22.7847 66.6546 23.8888 67.7624 23.8888 69.2394C23.8888 70.7164 22.7847 71.8242 21.3126 71.8242C19.8404 71.8242 18.7363 70.7164 18.7363 69.2394C18.7363 67.7624 19.8404 66.6546 21.3126 66.6546Z" fill="#FFCF2D"/>
<path d="M21.3126 44.7464C22.7847 44.7464 23.8888 45.8542 23.8888 47.3312C23.8888 48.8082 22.7847 49.916 21.3126 49.916C19.8404 49.916 18.7363 48.8082 18.7363 47.3312C18.7363 45.8542 19.8404 44.7464 21.3126 44.7464Z" fill="#FFCF2D"/>
<path d="M21.3126 22.7132C22.7847 22.7132 23.8888 23.821 23.8888 25.298C23.8888 26.775 22.7847 27.8828 21.3126 27.8828C19.8404 27.8828 18.7363 26.775 18.7363 25.298C18.7363 23.821 19.8404 22.7132 21.3126 22.7132Z" fill="#FFCF2D"/>
<path d="M21.3126 0.680954C22.7847 0.680954 23.8888 1.78872 23.8888 3.26576C23.8888 4.7428 22.7847 5.85059 21.3126 5.85059C19.8404 5.85059 18.7363 4.7428 18.7363 3.26576C18.7363 1.91181 19.8404 0.680954 21.3126 0.680954Z" fill="#FFCF2D"/>
<path d="M75.9044 176.695C77.3765 176.695 78.4806 177.802 78.4806 179.279C78.4806 180.756 77.3765 181.864 75.9044 181.864C74.4322 181.864 73.3281 180.756 73.3281 179.279C73.3281 177.802 74.5549 176.695 75.9044 176.695Z" fill="#FFCF2D"/>
<path d="M75.9044 154.662C77.3765 154.662 78.4806 155.77 78.4806 157.247C78.4806 158.724 77.3765 159.832 75.9044 159.832C74.4322 159.832 73.3281 158.724 73.3281 157.247C73.3281 155.893 74.5549 154.662 75.9044 154.662Z" fill="#FFCF2D"/>
<path d="M75.9044 132.753C77.3765 132.753 78.4806 133.861 78.4806 135.338C78.4806 136.815 77.3765 137.923 75.9044 137.923C74.4322 137.923 73.3281 136.815 73.3281 135.338C73.3281 133.861 74.5549 132.753 75.9044 132.753Z" fill="#FFCF2D"/>
<path d="M75.9044 110.72C77.3765 110.72 78.4806 111.828 78.4806 113.305C78.4806 114.782 77.3765 115.89 75.9044 115.89C74.4322 115.89 73.3281 114.782 73.3281 113.305C73.3281 111.828 74.5549 110.72 75.9044 110.72Z" fill="#FFCF2D"/>
<path d="M75.9044 88.6878C77.3765 88.6878 78.4806 89.7956 78.4806 91.2726C78.4806 92.7496 77.3765 93.8574 75.9044 93.8574C74.4322 93.8574 73.3281 92.7496 73.3281 91.2726C73.3281 89.9186 74.5549 88.6878 75.9044 88.6878Z" fill="#FFCF2D"/>
<path d="M75.9044 66.6546C77.3765 66.6546 78.4806 67.7624 78.4806 69.2394C78.4806 70.7164 77.3765 71.8242 75.9044 71.8242C74.4322 71.8242 73.3281 70.7164 73.3281 69.2394C73.3281 67.7624 74.5549 66.6546 75.9044 66.6546Z" fill="#FFCF2D"/>
<path d="M75.9044 44.7464C77.3765 44.7464 78.4806 45.8541 78.4806 47.3312C78.4806 48.8082 77.3765 49.916 75.9044 49.916C74.4322 49.916 73.3281 48.8082 73.3281 47.3312C73.3281 45.8541 74.5549 44.7464 75.9044 44.7464Z" fill="#FFCF2D"/>
<path d="M75.9044 22.7132C77.3765 22.7132 78.4806 23.821 78.4806 25.298C78.4806 26.775 77.3765 27.8828 75.9044 27.8828C74.4322 27.8828 73.3281 26.775 73.3281 25.298C73.3281 23.821 74.5549 22.7132 75.9044 22.7132Z" fill="#FFCF2D"/>
<path d="M75.9044 0.680954C77.3765 0.680954 78.4806 1.78872 78.4806 3.26576C78.4806 4.7428 77.3765 5.85059 75.9044 5.85059C74.4322 5.85059 73.3281 4.7428 73.3281 3.26576C73.3281 1.91181 74.5549 0.680954 75.9044 0.680954Z" fill="#FFCF2D"/>
<path d="M94.1837 176.695C95.6558 176.695 96.7599 177.802 96.7599 179.279C96.7599 180.756 95.6558 181.864 94.1837 181.864C92.7115 181.864 91.6074 180.756 91.6074 179.279C91.6074 177.802 92.7115 176.695 94.1837 176.695Z" fill="#FFCF2D"/>
<path d="M94.1837 154.662C95.6558 154.662 96.7599 155.77 96.7599 157.247C96.7599 158.724 95.6558 159.832 94.1837 159.832C92.7115 159.832 91.6074 158.724 91.6074 157.247C91.6074 155.893 92.7115 154.662 94.1837 154.662Z" fill="#FFCF2D"/>
<path d="M94.1837 132.753C95.6558 132.753 96.7599 133.861 96.7599 135.338C96.7599 136.815 95.6558 137.923 94.1837 137.923C92.7115 137.923 91.6074 136.815 91.6074 135.338C91.6074 133.861 92.7115 132.753 94.1837 132.753Z" fill="#FFCF2D"/>
<path d="M96.7599 113.305C96.7599 111.877 95.6065 110.72 94.1837 110.72C92.7608 110.72 91.6074 111.877 91.6074 113.305C91.6074 114.732 92.7608 115.89 94.1837 115.89C95.6065 115.89 96.7599 114.732 96.7599 113.305Z" fill="#FFCF2D"/>
<path d="M94.1837 88.6878C95.6558 88.6878 96.7599 89.7956 96.7599 91.2726C96.7599 92.7496 95.6558 93.8574 94.1837 93.8574C92.7115 93.8574 91.6074 92.7496 91.6074 91.2726C91.6074 89.9186 92.7115 88.6878 94.1837 88.6878Z" fill="#FFCF2D"/>
<path d="M94.1837 66.6546C95.6558 66.6546 96.7599 67.7624 96.7599 69.2394C96.7599 70.7164 95.6558 71.8242 94.1837 71.8242C92.7115 71.8242 91.6074 70.7164 91.6074 69.2394C91.6074 67.7624 92.7115 66.6546 94.1837 66.6546Z" fill="#FFCF2D"/>
<path d="M94.1837 44.7464C95.6558 44.7464 96.7599 45.8541 96.7599 47.3312C96.7599 48.8082 95.6558 49.916 94.1837 49.916C92.7115 49.916 91.6074 48.8082 91.6074 47.3312C91.6074 45.8541 92.7115 44.7464 94.1837 44.7464Z" fill="#FFCF2D"/>
<path d="M96.7599 25.298C96.7599 23.8704 95.6065 22.7132 94.1837 22.7132C92.7608 22.7132 91.6074 23.8704 91.6074 25.298C91.6074 26.7256 92.7608 27.8828 94.1837 27.8828C95.6065 27.8828 96.7599 26.7256 96.7599 25.298Z" fill="#FFCF2D"/>
<path d="M94.1837 0.680954C95.6558 0.680954 96.7599 1.78872 96.7599 3.26576C96.7599 4.7428 95.6558 5.85059 94.1837 5.85059C92.7115 5.85059 91.6074 4.7428 91.6074 3.26576C91.6074 1.91181 92.7115 0.680954 94.1837 0.680954Z" fill="#FFCF2D"/>
<path d="M112.463 176.695C113.935 176.695 115.039 177.802 115.039 179.279C115.039 180.756 113.935 181.864 112.463 181.864C110.991 181.864 109.887 180.756 109.887 179.279C109.887 177.802 110.991 176.695 112.463 176.695Z" fill="#FFCF2D"/>
<path d="M112.463 154.662C113.935 154.662 115.039 155.77 115.039 157.247C115.039 158.724 113.935 159.832 112.463 159.832C110.991 159.832 109.887 158.724 109.887 157.247C109.887 155.893 110.991 154.662 112.463 154.662Z" fill="#FFCF2D"/>
<path d="M112.463 132.753C113.935 132.753 115.039 133.861 115.039 135.338C115.039 136.815 113.935 137.923 112.463 137.923C110.991 137.923 109.887 136.815 109.887 135.338C109.887 133.861 110.991 132.753 112.463 132.753Z" fill="#FFCF2D"/>
<path d="M112.463 110.72C113.935 110.72 115.039 111.828 115.039 113.305C115.039 114.782 113.935 115.89 112.463 115.89C110.991 115.89 109.887 114.782 109.887 113.305C109.887 111.828 110.991 110.72 112.463 110.72Z" fill="#FFCF2D"/>
<path d="M112.463 88.6878C113.935 88.6878 115.039 89.7956 115.039 91.2726C115.039 92.7496 113.935 93.8574 112.463 93.8574C110.991 93.8574 109.887 92.7496 109.887 91.2726C109.887 89.9186 110.991 88.6878 112.463 88.6878Z" fill="#FFCF2D"/>
<path d="M112.463 66.6546C113.935 66.6546 115.039 67.7624 115.039 69.2394C115.039 70.7164 113.935 71.8242 112.463 71.8242C110.991 71.8242 109.887 70.7164 109.887 69.2394C109.887 67.7624 110.991 66.6546 112.463 66.6546Z" fill="#FFCF2D"/>
<path d="M112.463 44.7464C113.935 44.7464 115.039 45.8542 115.039 47.3312C115.039 48.8082 113.935 49.916 112.463 49.916C110.991 49.916 109.887 48.8082 109.887 47.3312C109.887 45.8542 110.991 44.7464 112.463 44.7464Z" fill="#FFCF2D"/>
<path d="M112.463 22.7132C113.935 22.7132 115.039 23.821 115.039 25.298C115.039 26.775 113.935 27.8828 112.463 27.8828C110.991 27.8828 109.887 26.775 109.887 25.298C109.887 23.821 110.991 22.7132 112.463 22.7132Z" fill="#FFCF2D"/>
<path d="M112.463 0.680954C113.935 0.680954 115.039 1.78872 115.039 3.26576C115.039 4.7428 113.935 5.85059 112.463 5.85059C110.991 5.85059 109.887 4.7428 109.887 3.26576C109.887 1.91181 110.991 0.680954 112.463 0.680954Z" fill="#FFCF2D"/>
<path d="M130.619 176.695C132.091 176.695 133.196 177.802 133.196 179.279C133.196 180.756 132.091 181.864 130.619 181.864C129.147 181.864 128.043 180.756 128.043 179.279C128.043 177.802 129.27 176.695 130.619 176.695Z" fill="#FFCF2D"/>
<path d="M130.619 154.662C132.091 154.662 133.195 155.77 133.195 157.247C133.195 158.724 132.091 159.832 130.619 159.832C129.147 159.832 128.043 158.724 128.043 157.247C128.043 155.893 129.27 154.662 130.619 154.662Z" fill="#FFCF2D"/>
<path d="M130.619 132.753C132.091 132.753 133.195 133.861 133.195 135.338C133.195 136.815 132.091 137.923 130.619 137.923C129.147 137.923 128.043 136.815 128.043 135.338C128.043 133.861 129.27 132.753 130.619 132.753Z" fill="#FFCF2D"/>
<path d="M130.619 110.72C132.091 110.72 133.195 111.828 133.195 113.305C133.195 114.782 132.091 115.89 130.619 115.89C129.147 115.89 128.043 114.782 128.043 113.305C128.043 111.828 129.27 110.72 130.619 110.72Z" fill="#FFCF2D"/>
<path d="M130.619 88.6878C132.091 88.6878 133.195 89.7956 133.195 91.2726C133.195 92.7496 132.091 93.8574 130.619 93.8574C129.147 93.8574 128.043 92.7496 128.043 91.2726C128.043 89.9187 129.27 88.6878 130.619 88.6878Z" fill="#FFCF2D"/>
<path d="M130.619 66.6546C132.091 66.6546 133.195 67.7624 133.195 69.2394C133.195 70.7164 132.091 71.8242 130.619 71.8242C129.147 71.8242 128.043 70.7164 128.043 69.2394C128.043 67.7624 129.27 66.6546 130.619 66.6546Z" fill="#FFCF2D"/>
<path d="M130.619 44.7464C132.091 44.7464 133.195 45.8541 133.195 47.3312C133.195 48.8082 132.091 49.916 130.619 49.916C129.147 49.916 128.043 48.8082 128.043 47.3312C128.043 45.8541 129.27 44.7464 130.619 44.7464Z" fill="#FFCF2D"/>
<path d="M130.619 22.7132C132.091 22.7132 133.196 23.821 133.196 25.298C133.196 26.775 132.091 27.8828 130.619 27.8828C129.147 27.8828 128.043 26.775 128.043 25.298C128.043 23.821 129.27 22.7132 130.619 22.7132Z" fill="#FFCF2D"/>
<path d="M130.619 0.680954C132.091 0.680954 133.195 1.78872 133.195 3.26576C133.195 4.7428 132.091 5.85059 130.619 5.85059C129.147 5.85059 128.043 4.7428 128.043 3.26576C128.043 1.91181 129.27 0.680954 130.619 0.680954Z" fill="#FFCF2D"/>
</g>
<defs>
<clipPath id="clip0_2693_2358">
<rect width="181.184" height="132.739" fill="white" transform="translate(0.457031 181.864) rotate(-90)"/>
</clipPath>
</defs>
</svg>
